<svg width="24" height="24" viewBox="0 0 24 24" fill="none" xmlns="http://www.w3.org/2000/svg">
<rect width="24" height="24" rx="4" fill="white"/>
<circle cx="12" cy="12" r="12" fill="white"/>
<path d="M15.3744 11.9995H12.1211V15.2528H15.3744V11.9995Z" fill="black"/>
<path d="M8.86719 8.74512C10.6629 8.74512 12.1205 10.2029 12.1205 11.9984H8.86719V8.74512Z" fill="black"/>
<path d="M8.86663 11.9995L6.98828 15.253H10.745L8.86663 11.9995Z" fill="black"/>
<path d="M15.3855 11.9975C16.2833 11.9975 17.0112 11.2696 17.0112 10.3718C17.0112 9.47395 16.2833 8.74609 15.3855 8.74609C14.4876 8.74609 13.7598 9.47395 13.7598 10.3718C13.7598 11.2696 14.4876 11.9975 15.3855 11.9975Z" fill="black"/>
<path d="M12.0008 20.6991C9.67686 20.6991 7.4922 19.7942 5.84896 18.1509C4.20571 16.5079 3.30078 14.323 3.30078 11.9993C3.30078 9.6756 4.20571 7.49073 5.84896 5.84749C7.4922 4.20425 9.67686 3.29932 12.0008 3.29932C14.3247 3.29932 16.5094 4.20425 18.1526 5.84749C19.7958 7.49073 20.7008 9.67539 20.7008 11.9993C20.7008 14.3232 19.7958 16.5079 18.1526 18.1511C16.5094 19.7944 14.3247 20.6993 12.0008 20.6993V20.6991ZM12.0008 4.37734C9.965 4.37734 8.05094 5.17015 6.61128 6.60981C5.17161 8.04927 4.37881 9.96332 4.37881 11.9993C4.37881 14.0353 5.17161 15.9492 6.61128 17.3888C8.05094 18.8285 9.965 19.6213 12.0008 19.6213C14.0366 19.6213 15.9506 18.8285 17.3903 17.3888C18.8299 15.9492 19.6228 14.0351 19.6228 11.9993C19.6228 9.96353 18.8299 8.04948 17.3903 6.60981C15.9506 5.17015 14.0366 4.37734 12.0008 4.37734Z" fill="black"/>
</svg>
