<svg width="500" height="500" fill="none" xmlns="http://www.w3.org/2000/svg"><path fill="#2E3148" d="M0 0h500v500H0z"/><path fill-rule="evenodd" clip-rule="evenodd" d="M249.517 106.05c79.503 0 143.954 64.45 143.954 143.954 0 79.503-64.451 143.954-143.954 143.954-79.504 0-143.955-64.451-143.955-143.954 0-79.504 64.451-143.954 143.955-143.954z" fill="#1B1E36"/><path clip-rule="evenodd" d="M250.739 36.416c-4.288 0-9.413 4.716-14.587 14.557-5.538 10.534-10.654 26.078-14.996 45.604-8.967 40.327-14.111 95.018-14.111 153.408 0 58.391 5.144 113.082 14.111 153.409 4.342 19.527 9.458 35.07 14.996 45.604 5.174 9.841 10.299 14.557 14.587 14.557s9.412-4.716 14.586-14.557c5.538-10.534 10.654-26.077 14.996-45.604 8.968-40.327 14.112-95.018 14.112-153.409 0-58.39-5.144-113.081-14.112-153.408-4.342-19.526-9.458-35.07-14.996-45.604-5.174-9.84-10.298-14.556-14.586-14.556z" stroke="#6F7390" stroke-width="15"/><path clip-rule="evenodd" d="M435.811 143.215c-2.143-3.71-8.793-5.788-19.909-5.345-11.898.474-27.927 3.819-47.019 9.824-39.431 12.404-89.398 35.299-139.998 64.496-50.601 29.197-95.424 60.996-125.887 88.922-14.75 13.522-25.663 25.723-32.022 35.784-5.94 9.397-7.465 16.188-5.323 19.896 2.143 3.71 8.793 5.789 19.91 5.345 11.897-.473 27.926-3.818 47.019-9.824 39.431-12.403 89.397-35.298 139.998-64.496 50.601-29.196 95.423-60.995 125.887-88.921 14.75-13.522 25.662-25.723 32.022-35.784 5.94-9.397 7.464-16.188 5.322-19.897z" stroke="#6F7390" stroke-width="15"/><path clip-rule="evenodd" d="M435.811 356.792c2.142-3.708.619-10.499-5.322-19.896-6.36-10.061-17.272-22.262-32.022-35.784-30.464-27.926-75.286-59.725-125.887-88.922-50.601-29.197-100.567-52.092-139.998-64.496-19.093-6.005-35.122-9.35-47.02-9.824-11.115-.443-17.766 1.635-19.909 5.345-2.142 3.709-.618 10.5 5.323 19.897 6.36 10.061 17.271 22.262 32.022 35.784 30.463 27.926 75.286 59.725 125.887 88.921 50.6 29.198 100.567 52.093 139.998 64.496 19.092 6.006 35.121 9.351 47.019 9.824 11.116.444 17.766-1.635 19.909-5.345z" stroke="#6F7390" stroke-width="15"/><path fill-rule="evenodd" clip-rule="evenodd" d="M111.103 188.814c8.484 0 15.362 6.881 15.362 15.37 0 8.489-6.878 15.37-15.362 15.37-8.485 0-15.363-6.881-15.363-15.37 0-8.489 6.878-15.37 15.363-15.37zM355.282 136.19c8.489 0 15.37 6.882 15.37 15.37 0 8.489-6.881 15.37-15.37 15.37-8.489 0-15.37-6.881-15.37-15.37 0-8.488 6.881-15.37 15.37-15.37zM219.78 377.443c8.489 0 15.37 6.878 15.37 15.363 0 8.484-6.881 15.362-15.37 15.362-8.489 0-15.37-6.878-15.37-15.362 0-8.485 6.881-15.363 15.37-15.363zM249.881 223.858c14.372 0 26.023 11.651 26.023 26.022 0 14.372-11.651 26.022-26.023 26.022-14.371 0-26.022-11.65-26.022-26.022 0-14.371 11.651-26.022 26.022-26.022z" fill="#B7B9C8"/></svg>