<svg width="500" height="500" fill="none" xmlns="http://www.w3.org/2000/svg"><path fill="#FF0" d="M0 0h500v500H0z"/><path d="M317.762 250.335h-65.137v65.185h65.137v-65.185zm-130.319-65.219a65.15 65.15 0 0 1 46.049 19.102 65.248 65.248 0 0 1 19.088 46.083h-65.137v-65.185zm-.011 65.219-37.614 65.185h75.228l-37.614-65.185zm130.557-.045a32.538 32.538 0 0 0 23.017-9.541 32.592 32.592 0 0 0 0-46.069 32.55 32.55 0 0 0-23.017-9.541 32.538 32.538 0 0 0-23.017 9.541 32.586 32.586 0 0 0-9.534 23.034c0 8.64 3.429 16.926 9.534 23.035a32.538 32.538 0 0 0 23.017 9.541z" fill="#262626"/><path d="M250.194 424.635a172.945 172.945 0 0 1-66.696-13.183 173.036 173.036 0 0 1-56.475-37.878 173.176 173.176 0 0 1-37.848-56.51 173.282 173.282 0 0 1-13.174-66.741c0-46.557 18.125-90.339 51.022-123.262a173.05 173.05 0 0 1 56.48-37.88 172.932 172.932 0 0 1 66.702-13.18c46.523 0 90.261 18.138 123.159 51.06a173.196 173.196 0 0 1 37.85 56.517 173.289 173.289 0 0 1 13.173 66.745c0 46.569-18.125 90.34-51.023 123.263a173.055 173.055 0 0 1-56.474 37.877 172.92 172.92 0 0 1-66.696 13.172zm0-327.027c-40.762 0-79.08 15.886-107.898 44.726a151.716 151.716 0 0 0-33.163 49.513 151.81 151.81 0 0 0-11.541 58.476 151.814 151.814 0 0 0 11.541 58.477 151.716 151.716 0 0 0 33.163 49.513 151.58 151.58 0 0 0 49.472 33.179 151.495 151.495 0 0 0 58.426 11.547c40.761 0 79.091-15.886 107.909-44.726a151.726 151.726 0 0 0 33.156-49.515 151.813 151.813 0 0 0 11.537-58.475c0-40.791-15.875-79.149-44.693-107.989a151.592 151.592 0 0 0-49.478-33.18 151.49 151.49 0 0 0-58.431-11.546z" fill="#262626"/></svg>