<svg width="500" height="500" fill="none" xmlns="http://www.w3.org/2000/svg"><path fill="#020418" d="M0 0h500v500H0z"/><path d="M369.607 281.574a86.496 86.496 0 0 1-6.6 33.314 86.673 86.673 0 0 1-18.861 28.243 86.674 86.674 0 0 1-28.253 18.861c-10.596 4.384-21.781 6.617-33.242 6.617H282.23c-18.36 0-36.583-5.986-51.352-16.864-14.866-10.951-26.036-26.706-31.593-44.896a86.197 86.197 0 0 1-3.737-25.243v-64.178c.009-6.114 2.386-11.857 6.714-16.184 4.327-4.319 10.07-6.697 16.168-6.705 6.107.016 11.849 2.41 16.168 6.721a22.829 22.829 0 0 1 6.714 16.16v64.162c.008 11.016 4.311 21.384 12.124 29.173a41.023 41.023 0 0 0 21.118 11.242 41.14 41.14 0 0 0 23.82-2.353 41.143 41.143 0 0 0 18.506-15.173 41.072 41.072 0 0 0 6.997-22.897v-128.3c0-3.016.582-5.969 1.739-8.759a22.571 22.571 0 0 1 4.957-7.416 22.879 22.879 0 0 1 7.418-4.959c5.572-2.296 11.921-2.305 17.502 0a22.864 22.864 0 0 1 7.417 4.959 22.81 22.81 0 0 1 4.958 7.416 22.77 22.77 0 0 1 1.739 8.759v128.3zm-180.343-93.335c-7.797 7.796-12.1 18.165-12.108 29.181v128.308c0 6.106-2.378 11.848-6.705 16.176-8.639 8.654-23.715 8.654-32.361 0-4.319-4.328-6.698-10.07-6.698-16.176v-128.3a87.098 87.098 0 0 1 21.16-56.826 87.074 87.074 0 0 1 53.131-29.213 86.772 86.772 0 0 1 12.755-.947 87.113 87.113 0 0 1 46.565 13.499 87.018 87.018 0 0 1 17.761 14.898c.049-.049.081-.105.129-.154l.122.461a86.93 86.93 0 0 1 18.716 33.039l.356 1.174a86.61 86.61 0 0 1 3.429 24.061v64.154c0 4.537-1.334 8.929-3.858 12.698a22.905 22.905 0 0 1-10.255 8.427c-2.726 1.133-5.606 1.666-8.51 1.699v.041c-.113 0-.218-.033-.331-.033-1.456 0-2.92-.097-4.376-.388-.841-.162-1.658-.421-2.467-.679v-.114c-.55-.178-1.116-.266-1.65-.493a22.918 22.918 0 0 1-10.256-8.428 22.794 22.794 0 0 1-3.858-12.698v-58.104h-.016v-6.09a41.319 41.319 0 0 0-25.656-38.175c-5.055-2.079-10.426-3.195-15.845-3.098-11.016.008-21.377 4.311-29.174 12.1zm186.628-64.13c-7.797-7.789-18.15-12.083-29.158-12.1h-.017c-11.008.033-21.352 4.335-29.133 12.125-7.765 7.788-12.051 18.133-12.068 29.14v4.635c-11.598-16.945-27.953-30.209-47.187-38.07-23.965-9.77-50.607-10.442-75.051-1.82-20.656 7.328-38.265 20.656-50.915 38.547-12.65 17.899-19.347 38.943-19.363 60.854v128.308c0 11.023 4.295 21.384 12.092 29.181C132.881 382.705 143.25 387 154.274 387c11.024 0 21.385-4.295 29.183-12.091 7.796-7.797 12.091-18.158 12.091-29.181v-4.603a105.418 105.418 0 0 0 47.18 38.046c23.949 9.77 50.583 10.409 75.018 1.812 20.649-7.319 38.241-20.657 50.899-38.548 12.642-17.898 19.339-38.926 19.355-60.829v-128.34c-.016-11.007-4.319-21.36-12.108-29.157z" fill="url(#a)"/><defs><linearGradient id="a" x1="100.868" y1="384.969" x2="386.424" y2="79.053" gradientUnits="userSpaceOnUse"><stop offset=".05" stop-color="#fff"/><stop offset=".38" stop-color="#A7B3FF"/><stop offset="1" stop-color="#74A4FF"/></linearGradient></defs></svg>