<svg width="500" height="500" fill="none" xmlns="http://www.w3.org/2000/svg"><path fill="#141424" d="M0 0h500v500H0z"/><path d="M370.16 129.84c-66.283-66.453-174.037-66.453-240.32 0-66.453 66.453-66.453 174.037 0 240.32 66.453 66.453 174.037 66.453 240.32 0 66.453-66.283 66.453-174.037 0-240.32zm-14.616 225.704c-58.296 58.295-152.962 58.295-211.258 0-58.295-58.296-58.295-152.962 0-211.258 58.296-58.295 152.962-58.295 211.258 0 58.465 58.466 58.465 152.962 0 211.258z" fill="#fff"/><path d="M341.613 349.265v-198.53c-8.652-8.173-18.322-15.324-28.671-20.943v189.847L188.079 129.111c-10.857 5.789-20.867 12.941-29.688 21.454v198.7c8.652 8.173 18.322 15.324 28.671 20.943V180.361l124.862 190.528c10.858-5.789 20.867-13.11 29.689-21.624z" fill="#fff"/></svg>