<svg width="500" height="500" fill="none" xmlns="http://www.w3.org/2000/svg"><path fill="#760DBB" d="M0 0h500v500H0z"/><path d="M399.787 143.975c-3.339-12.857-14.07-25.713-33.387-40.025C350.896 92.55 334.441 86 321.325 86c-2.624 0-5.009.243-7.393.728-5.963 1.213-11.211 5.579-14.548 12.128-4.054 7.763-5.008 18.193-2.384 24.5.952 1.941 2.145 4.366 3.576 6.549-12.64 7.763-19.795 9.946-20.75 10.188 32.914 11.159 60.34 34.446 77.51 64.767l.239-2.911c.715-8.005 3.1-17.222 6.44-26.683 3.338.971 6.677 1.456 10.015 1.456 8.825 0 16.456-3.639 21.226-10.188 4.771-6.55 6.676-15.282 4.531-22.559z" fill="#5E12A0"/><path d="M365.447 168.238c21.702 6.065 30.526-10.915 27.663-22.316-3.1-11.401-13.116-23.045-30.765-36.143-17.648-13.1-35.533-18.436-46.981-16.01-11.447 2.425-14.786 20.133-11.926 26.925 1.194 2.668 3.816 6.55 7.395 10.916-4.531 3.153-8.825 5.579-12.401 7.762 21.94 9.946 41.019 25.47 55.328 44.876 1.669-6.549 4.055-12.371 6.202-17.465 1.668.242 3.577.728 5.485 1.455z" fill="url(#a)"/><path d="M241.184 405.97c73.627 0 133.315-60.71 133.315-135.598s-59.688-135.597-133.315-135.597c-73.628 0-133.315 60.709-133.315 135.597S167.556 405.97 241.184 405.97z" fill="url(#b)"/><path opacity=".6" d="M382.143 134.756c-18.126-19.405-33.389-24.5-51.753-28.623-14.309-3.396-10.494-11.644 6.917-9.946-8.347-2.91-16.217-3.638-21.942-2.425-11.447 2.425-14.786 20.133-11.924 26.925 1.192 2.668 3.816 6.549 7.394 10.916a180.8 180.8 0 0 1-16.458 9.945c2.148.97 4.771 2.183 7.87 3.881 8.109 4.367 16.934 11.644 16.934 11.644-13.356-11.644-10.494-16.98 7.87-30.079 5.725-4.124 16.217-3.639 25.996 1.455 9.777 5.094 21.224 17.951 21.224 17.951l-10.969 21.346 2.146.728c6.916 1.94 12.4 1.455 16.695-.243 5.008-3.153 18.124-13.826 0-33.475z" fill="#A98698"/><path d="M330.15 117.79c4.771 1.941 10.972 5.337 18.604 10.431 9.062 6.064 16.932 12.857 21.94 18.193-8.347 11.158-13.832 26.44-17.17 37.113 1.67 2.426 3.577 4.852 5.247 7.278 1.669-6.065 4.529-15.04 8.345-24.015.955.243 2.148.243 3.339.243 2.862 0 6.201-.486 8.825-2.669 1.907-1.455 4.055-4.123 3.816-8.975 0-4.609-3.577-10.43-10.971-17.465-5.247-5.094-12.4-10.673-19.555-15.767-20.511-13.827-34.821-17.708-41.259-11.159-4.293 4.367-3.816 9.703-2.386 13.585-7.631 5.094-14.071 8.732-18.363 11.158 2.862.97 5.486 2.183 8.348 3.396 7.63-4.124 18.602-11.159 31.24-21.347zm45.076 34.688c.715 1.213.954 2.426.954 3.154 0 2.183-.715 2.91-1.194 3.396-.953.728-2.861 1.213-4.531 1.213 1.432-2.911 3.101-5.337 4.771-7.763zm-58.907-36.143c.715-.728 2.624-1.213 5.724-.728-2.385 1.941-4.769 3.639-7.154 5.337-.239-1.698 0-3.396 1.43-4.609z" fill="#5E12A0"/><path d="M241.185 126.78C163.199 126.78 100 191.062 100 270.384c0 79.318 63.199 143.602 141.185 143.602 77.985 0 141.185-64.284 141.185-143.602 0-79.322-63.437-143.604-141.185-143.604zm0 279.2c-73.693 0-133.315-60.641-133.315-135.596 0-74.956 59.622-135.599 133.315-135.599 73.692 0 133.317 60.643 133.317 135.599 0 74.955-59.861 135.596-133.317 135.596z" fill="#5E12A0"/><path opacity=".6" d="M241.184 405.97c73.627 0 133.315-60.71 133.315-135.598s-59.688-135.597-133.315-135.597c-73.628 0-133.315 60.709-133.315 135.597S167.556 405.97 241.184 405.97z" fill="url(#c)"/><path opacity=".6" d="M240.246 389.489c-72.739-11.886-122.106-81.504-110.182-155.488 5.247-32.747 21.464-60.643 44.359-80.776-33.388 19.648-58.191 53.851-64.869 95.573-11.686 73.984 37.681 143.602 110.182 155.488 40.542 6.793 79.654-6.064 108.512-31.291-25.519 15.04-56.522 21.59-88.002 16.494z" fill="#A98698"/><path opacity=".6" d="M262.408 136.713c-33.627-5.579-66.3 2.183-93.01 19.406l-.954.97c10.255-6.307 25.279-11.886 25.279-11.886-38.635 22.802-50.559 48.757-50.559 48.757 15.025-29.594 59.145-50.455 93.726-51.911 34.58-1.455 57.236 8.976 84.902 31.535 27.664 22.802 44.358 69.375 42.689 106.246-1.43 36.872-20.509 66.708-20.509 66.708 13.116-17.225 20.986-29.836 25.994-42.694.955-3.88 1.909-7.76 2.385-11.885 11.925-73.742-37.204-143.36-109.943-155.246z" fill="url(#d)"/><path d="M367.821 269.162c0 71.073-56.761 128.807-126.637 128.807-69.877 0-126.875-57.734-126.875-128.807h253.512z" fill="url(#e)"/><path opacity=".6" d="M357.8 269.162c0 69.376-53.898 126.137-121.628 128.807h5.008c69.877 0 126.639-57.734 126.639-128.807H357.8z" fill="url(#f)"/><path opacity=".7" d="M132.195 269.162h-17.886c0 71.073 56.76 128.807 126.637 128.807 3.1 0 5.962 0 8.824-.244-65.584-4.851-117.575-60.642-117.575-128.563z" fill="url(#g)"/><path d="M367.584 270.364c0-14.797-25.28-23.288-58.908-26.198-24.325-1.941-48.888.485-77.031 9.217-24.326 7.278-46.267 6.064-62.246 4.123-35.534-4.123-55.09-4.609-55.09 12.858 0 25.227 50.559 56.762 126.398 45.845 38.397-5.578 58.191-16.979 80.849-24.742 24.564-8.247 46.028-8.005 46.028-21.103z" fill="url(#h)"/><path d="M282.68 209.245c11.855 0 21.464-9.775 21.464-21.832s-9.609-21.831-21.464-21.831c-11.853 0-21.463 9.774-21.463 21.831s9.61 21.832 21.463 21.832zM317.744 225.496c5.005 0 9.062-4.127 9.062-9.218s-4.057-9.218-9.062-9.218c-5.005 0-9.062 4.127-9.062 9.218s4.057 9.218 9.062 9.218z" fill="#fff"/><path opacity=".6" d="M350.174 169.97h-.477c-1.432-.243-2.385-1.698-2.147-3.396 2.147-11.159 11.209-21.832 11.686-22.317.953-1.213 2.862-1.213 3.816-.243 1.193.971 1.193 2.911.238 3.882-.238.242-8.585 10.187-10.492 19.89-.24 1.456-1.432 2.184-2.624 2.184z" fill="url(#i)"/><path opacity=".2" d="M232.389 371.509c3.688 0 6.677-3.04 6.677-6.793 0-3.75-2.989-6.792-6.677-6.792-3.688 0-6.678 3.042-6.678 6.792 0 3.753 2.99 6.793 6.678 6.793z" fill="#fff"/><g opacity=".4"><path opacity=".6" d="M228.541 369.146c-2.624-2.669-2.624-7.034 0-9.704.477-.485.954-.728 1.43-1.213-.953.244-1.669.728-2.384 1.456-2.624 2.668-2.624 7.035 0 9.703 2.146 2.183 5.485 2.668 8.108 1.214-2.385.969-5.246.485-7.154-1.456z" fill="url(#j)"/></g><path opacity=".3" d="M234.736 362.786c.79 0 1.431-.651 1.431-1.455 0-.805-.641-1.456-1.431-1.456-.791 0-1.431.651-1.431 1.456 0 .804.64 1.455 1.431 1.455z" fill="#fff"/><path opacity=".2" d="M267.225 368.126c3.688 0 6.677-3.042 6.677-6.794 0-3.753-2.989-6.793-6.677-6.793-3.689 0-6.678 3.04-6.678 6.793 0 3.752 2.989 6.794 6.678 6.794z" fill="#fff"/><g opacity=".4"><path opacity=".6" d="M263.374 365.761c-2.624-2.67-2.624-7.037 0-9.705.476-.486.955-.728 1.43-1.212-.954.241-1.669.726-2.384 1.454-2.622 2.669-2.622 7.036 0 9.704 2.148 2.184 5.485 2.668 8.109 1.212-2.384.972-5.246.487-7.155-1.453z" fill="url(#k)"/></g><path opacity=".3" d="M269.572 359.4c.791 0 1.43-.651 1.43-1.457 0-.802-.639-1.454-1.43-1.454-.79 0-1.431.652-1.431 1.454 0 .806.641 1.457 1.431 1.457z" fill="#fff"/><path opacity=".2" d="M249.998 383.914c2.767 0 5.009-2.282 5.009-5.094 0-2.814-2.242-5.095-5.009-5.095-2.765 0-5.008 2.281-5.008 5.095 0 2.812 2.243 5.094 5.008 5.094z" fill="#fff"/><g opacity=".4"><path opacity=".6" d="M247.137 382.003c-1.908-1.941-1.908-5.336 0-7.278.238-.243.715-.484.953-.728-.715.244-1.192.728-1.669 1.214-1.908 1.94-1.908 5.338 0 7.278 1.669 1.699 4.055 1.94 6.201.728a5.125 5.125 0 0 1-5.485-1.214z" fill="url(#l)"/></g><path opacity=".3" d="M251.677 377.101a.96.96 0 0 0 .953-.969.963.963 0 0 0-.953-.972.964.964 0 0 0-.954.972c0 .535.428.969.954.969z" fill="#fff"/><path opacity=".2" d="M280.774 380.251c2.767 0 5.009-2.28 5.009-5.094 0-2.814-2.242-5.094-5.009-5.094-2.765 0-5.006 2.28-5.006 5.094 0 2.814 2.241 5.094 5.006 5.094z" fill="#fff"/><g opacity=".4"><path opacity=".6" d="M277.914 378.342c-1.907-1.942-1.907-5.338 0-7.278.238-.243.715-.485.955-.728-.717.243-1.194.728-1.67 1.213-1.909 1.941-1.909 5.337 0 7.279 1.67 1.697 4.054 1.94 6.201.728a5.128 5.128 0 0 1-5.486-1.214z" fill="url(#m)"/></g><path opacity=".3" d="M282.458 373.469a.963.963 0 0 0 .955-.971.962.962 0 0 0-.955-.971.963.963 0 0 0-.954.971c0 .536.428.971.954.971z" fill="#fff"/><path opacity=".2" d="M203.978 369.108c6.059 0 10.971-4.997 10.971-11.158 0-6.163-4.912-11.16-10.971-11.16s-10.97 4.997-10.97 11.16c0 6.161 4.911 11.158 10.97 11.158z" fill="#fff"/><g opacity=".4"><path opacity=".6" d="M197.782 364.959c-4.294-4.367-4.294-11.402 0-15.768.715-.728 1.43-1.213 2.384-1.699-1.431.486-2.623 1.456-3.816 2.427-4.292 4.366-4.292 11.401 0 15.767 3.578 3.639 9.063 4.367 13.356 1.697-4.054 1.699-8.824.971-11.924-2.424z" fill="url(#n)"/></g><path opacity=".3" d="M207.809 354.537c1.317 0 2.385-1.085 2.385-2.425 0-1.34-1.068-2.425-2.385-2.425-1.318 0-2.385 1.085-2.385 2.425 0 1.34 1.067 2.425 2.385 2.425z" fill="#fff"/><path opacity=".2" d="M302.052 341.687c6.059 0 10.971-4.995 10.971-11.158 0-6.163-4.912-11.158-10.971-11.158-6.058 0-10.97 4.995-10.97 11.158 0 6.163 4.912 11.158 10.97 11.158z" fill="#fff"/><g opacity=".4"><path opacity=".6" d="M295.548 337.565c-4.293-4.365-4.293-11.399 0-15.766.715-.728 1.432-1.213 2.387-1.699-1.434.486-2.624 1.456-3.817 2.427-4.293 4.366-4.293 11.401 0 15.766 3.577 3.64 9.063 4.368 13.356 1.698-4.056 1.699-8.588.972-11.926-2.426z" fill="url(#o)"/></g><path opacity=".3" d="M305.82 327.15c1.319 0 2.384-1.087 2.384-2.427s-1.065-2.426-2.384-2.426c-1.317 0-2.384 1.086-2.384 2.426s1.067 2.427 2.384 2.427z" fill="#fff"/><defs><linearGradient id="h" x1="114.586" y1="281.065" x2="367.59" y2="281.065" gradientUnits="userSpaceOnUse"><stop stop-color="#000292"/><stop offset=".995" stop-color="#BE00C7"/></linearGradient><linearGradient id="o" x1="290.881" y1="330.807" x2="307.358" y2="330.807" gradientUnits="userSpaceOnUse"><stop offset=".289" stop-color="#fff"/><stop offset=".78" stop-color="#fff" stop-opacity="0"/></linearGradient><linearGradient id="c" x1="219.799" y1="404.048" x2="263.874" y2="136.71" gradientUnits="userSpaceOnUse"><stop stop-color="#81FFFF"/><stop offset=".62" stop-color="#fff" stop-opacity="0"/></linearGradient><linearGradient id="d" x1="335.136" y1="178.281" x2="223.188" y2="279.268" gradientUnits="userSpaceOnUse"><stop offset=".289" stop-color="#fff"/><stop offset=".78" stop-color="#fff" stop-opacity="0"/></linearGradient><linearGradient id="e" x1="114.416" y1="333.488" x2="367.761" y2="333.488" gradientUnits="userSpaceOnUse"><stop stop-color="#0002E9"/><stop offset=".995" stop-color="#FF00C7"/></linearGradient><linearGradient id="f" x1="379.749" y1="280.465" x2="239.648" y2="410.639" gradientUnits="userSpaceOnUse"><stop offset=".289" stop-color="#fff"/><stop offset=".78" stop-color="#fff" stop-opacity="0"/></linearGradient><linearGradient id="g" x1="114.416" y1="333.488" x2="249.954" y2="333.488" gradientUnits="userSpaceOnUse"><stop stop-color="#000292"/><stop offset=".995" stop-color="#7D00C7"/></linearGradient><linearGradient id="n" x1="193.021" y1="358.209" x2="209.499" y2="358.209" gradientUnits="userSpaceOnUse"><stop offset=".289" stop-color="#fff"/><stop offset=".78" stop-color="#fff" stop-opacity="0"/></linearGradient><linearGradient id="i" x1="363.439" y1="143.076" x2="344.803" y2="172.848" gradientUnits="userSpaceOnUse"><stop offset=".289" stop-color="#fff"/><stop offset=".78" stop-color="#fff" stop-opacity="0"/></linearGradient><linearGradient id="j" x1="225.612" y1="364.987" x2="235.703" y2="364.987" gradientUnits="userSpaceOnUse"><stop offset=".289" stop-color="#fff"/><stop offset=".78" stop-color="#fff" stop-opacity="0"/></linearGradient><linearGradient id="k" x1="260.422" y1="361.554" x2="270.511" y2="361.554" gradientUnits="userSpaceOnUse"><stop offset=".289" stop-color="#fff"/><stop offset=".78" stop-color="#fff" stop-opacity="0"/></linearGradient><linearGradient id="l" x1="244.856" y1="378.899" x2="252.432" y2="378.899" gradientUnits="userSpaceOnUse"><stop offset=".289" stop-color="#fff"/><stop offset=".78" stop-color="#fff" stop-opacity="0"/></linearGradient><linearGradient id="m" x1="275.633" y1="375.236" x2="283.208" y2="375.236" gradientUnits="userSpaceOnUse"><stop offset=".289" stop-color="#fff"/><stop offset=".78" stop-color="#fff" stop-opacity="0"/></linearGradient><radialGradient id="b" cx="0" cy="0" r="1" gradientUnits="userSpaceOnUse" gradientTransform="matrix(298.522 0 0 322.929 360.85 246.291)"><stop stop-color="#FFEAFF" stop-opacity=".6"/><stop offset=".681" stop-color="#A087C9"/><stop offset="1" stop-color="#10002F"/></radialGradient><radialGradient id="a" cx="0" cy="0" r="1" gradientUnits="userSpaceOnUse" gradientTransform="matrix(106.591 0 0 108.416 388.761 130.639)"><stop stop-color="#FFEAFF" stop-opacity=".6"/><stop offset=".681" stop-color="#A087C9"/><stop offset="1" stop-color="#10002F"/></radialGradient></defs></svg>