<svg width="500" height="500" fill="none" xmlns="http://www.w3.org/2000/svg"><path fill="#E4047C" d="M0 0h500v500H0z"/><path d="M360.804 326.446c-26.507 0-47.955-21.487-47.955-47.954v-71.81h61.85v-41.769h-61.85v-69.08l-47.391 25.303v43.777h-89.884c-62.653 0-79.12 75.506-30.925 103.618l48.999 32.934c10.843 8.033 6.425 24.902-8.836 24.902h-66.67v42.169h66.67c63.054 0 79.121-75.505 30.925-103.619l-48.597-32.933c-10.844-8.032-6.827-25.302 8.434-25.302h89.884v72.372c0 54.621 37.752 89.523 94.783 89.523h14.458v-42.131h-13.895z" fill="#fff"/></svg>